<?xml version="1.0" encoding="UTF-8" standalone="no"?><!DOCTYPE svg PUBLIC "-//W3C//DTD SVG 1.1//EN" "http://www.w3.org/Graphics/SVG/1.1/DTD/svg11.dtd"><svg width="100%" height="100%" viewBox="0 0 16 16" version="1.1" xmlns="http://www.w3.org/2000/svg" xmlns:xlink="http://www.w3.org/1999/xlink" xml:space="preserve" xmlns:serif="http://www.serif.com/" style="fill-rule:evenodd;clip-rule:evenodd;stroke-linejoin:round;stroke-miterlimit:2;"><rect id="delete" x="0" y="0" width="16" height="16" style="fill:none;"/><path d="M14.507,2.507c0,-0.552 -0.447,-1 -1,-1l-11,0c-0.552,0 -1,0.448 -1,1l0,11c0,0.553 0.448,1 1,1l11,0c0.553,0 1,-0.447 1,-1l0,-11Z" style="fill:#9b1200;"/><path d="M11.071,5.876l-0.94,-0.94l-5.202,5.202l0.94,0.94l5.202,-5.202Z" style="fill:#fff;"/><path d="M5.869,4.936l-0.94,0.94l5.202,5.202l0.94,-0.94l-5.202,-5.202Z" style="fill:#fff;"/></svg>