<?xml version="1.0" encoding="UTF-8"?>
<svg width="68px" height="40px" viewBox="0 0 68 40" version="1.1" xmlns="http://www.w3.org/2000/svg" xmlns:xlink="http://www.w3.org/1999/xlink">
    <!-- Generator: Sketch 62 (91390) - https://sketch.com -->
    <title>cloud copy 2</title>
    <desc>Created with Sketch.</desc>
    <g id="cloud-copy-2" stroke="none" stroke-width="1" fill="none" fill-rule="evenodd">
        <g>
            <g id="cloud" stroke="#DAE0E2" stroke-width="4">
                <path d="M57.72105,34.9681472 L11.0753078,34.9999823 C8.51048538,34.9301669 6.23927331,33.9190516 4.60805478,32.3052793 C2.98409562,30.6986886 2,28.4972766 2,26.0681818 C2,23.604167 3.01120644,21.3744159 4.64306,19.7600154 C6.28273894,18.1378731 8.54843087,17.1363636 11.05,17.1363636 C11.7027227,17.1363636 12.3393863,17.2045484 12.9527453,17.3339899 C12.9371618,16.6798686 12.9648271,16.0191848 13.0379676,15.355418 C13.4534789,11.5845594 15.2797692,8.23037976 17.9795042,5.82660499 C20.6512838,3.44772108 24.1798594,2 28.05,2 C32.83078,2 37.0909245,4.20949127 39.839556,7.65555531 C40.2232303,8.13658244 40.5768651,8.64096619 40.8986182,9.16505052 C41.3573562,8.77993823 41.8488647,8.44493779 42.3646536,8.16213279 C43.6637598,7.44983805 45.1592127,7.04545455 46.75,7.04545455 C49.129969,7.04545455 51.296432,7.95185706 52.9134197,9.43697264 C54.5344316,10.9257842 55.603833,12.9963436 55.775557,15.3145592 C55.8235818,15.9628785 55.7993103,16.6023844 55.7093074,17.224335 C56.3335534,17.137406 56.975073,17.1144863 57.625666,17.1615906 C59.9776773,17.3318812 62.0805103,18.3907263 63.591685,20.0010902 C65.0853174,21.5927604 66,23.7245931 66,26.0681818 C66,28.4072198 65.0888667,30.5353253 63.6003431,32.1260825 C62.108995,33.7198583 60.0390389,34.775644 57.72105,34.9681472 Z" id="Combined-Shape"></path>
            </g>
            <rect id="Rectangle-Copy-5" fill="#FFFFFF" x="27" y="32" width="14" height="6"></rect>
            <rect id="Rectangle-Copy-4" fill="#F0981B" x="30" y="25" width="8" height="15"></rect>
            <polygon id="Triangle-Copy" fill="#F0981B" points="34 20 43 29 25 29"></polygon>
        </g>
    </g>
</svg>